<?xml version="1.0" encoding="UTF-8"?>
<!DOCTYPE svg PUBLIC "-//W3C//DTD SVG 1.1//EN" "http://www.w3.org/Graphics/SVG/1.1/DTD/svg11.dtd">
<!-- Creator: CorelDRAW X8 -->
<svg xmlns="http://www.w3.org/2000/svg" xml:space="preserve" width="11.6929in" height="7.08661in" version="1.1" style="shape-rendering:geometricPrecision; text-rendering:geometricPrecision; image-rendering:optimizeQuality; fill-rule:evenodd; clip-rule:evenodd"
viewBox="0 0 11693 7087"
 xmlns:xlink="http://www.w3.org/1999/xlink">
 <defs>
  <style type="text/css">
   <![CDATA[
    .str0 {stroke:#FEFEFE;stroke-width:6.94488}
    .fil0 {fill:#FEFEFE}
   ]]>
  </style>
 </defs>
 <g id="Layer_x0020_1">
  <metadata id="CorelCorpID_0Corel-Layer"/>
  <g id="_2589296379984">
   <path class="fil0 str0" d="M898 3959l-601 358c-294,203 -266,421 -165,569 164,184 328,212 492,101 85,-63 184,-130 269,-192 2595,3575 8542,2659 10040,-1773 86,20 173,40 260,60 195,60 400,-31 455,-242 40,-187 59,-398 -304,-483 -245,-47 -428,-94 -674,-141 -1237,4639 -7019,5897 -9772,1743z"/>
   <ellipse class="fil0 str0" cx="3664" cy="1515" rx="466" ry="433"/>
   <ellipse class="fil0 str0" cx="7909" cy="497" rx="466" ry="433"/>
  </g>
 </g>
</svg>
